name C:\Users\u0101727\Documents\MyRepositories\upper-imu-dc\Results\main_mocap_tracking\Case_0\kinematics.mot
datacolumns 15
datarows 15
range 0.50000000 0.64000000
endheader 
time	ground_thorax_rot_x	ground_thorax_rot_y	ground_thorax_rot_z	clav_prot	clav_elev	scapula_abduction	scapula_elevation	scapula_upward_rot	scapula_winging	plane_elv	shoulder_elv	axial_rot	elbow_flexion	pro_sup	
          0.50000000	          2.43822786	         -4.79479305	         -6.63414871	        -23.87460013	         -6.60592082	        -11.71841045	         -5.92695743	         18.03535839	          5.08200082	        -26.30837778	         11.85513948	         42.83860520	          0.24921472	         34.29203106	
          0.51000000	          2.38430751	         -4.83405787	         -7.01992947	        -24.02726276	         -6.08518781	        -11.60843422	         -6.71448379	         17.91335055	          4.89954907	        -25.93528474	         12.01889707	         42.45722188	          0.17713186	         34.29926064	
          0.52000000	          2.31138955	         -4.85729881	         -7.43035189	        -24.02781403	         -6.08511984	        -11.60884797	         -6.71467340	         17.91422567	          4.89932302	        -25.50595494	         12.17583079	         42.04532413	          0.15350344	         34.30196374	
          0.53000000	          2.22768651	         -4.86838467	         -7.84599572	        -24.02774019	         -6.08437195	        -11.60903871	         -6.71404306	         17.91398811	          4.89905932	        -25.02780578	         12.32332207	         41.57313773	          0.14845264	         34.30304709	
          0.54000000	          2.13918580	         -4.87173612	         -8.25353271	        -24.02764391	         -6.08370490	        -11.60944924	         -6.71336777	         17.91330739	          4.89893085	        -24.49877769	         12.46228233	         41.01031115	          0.14519013	         34.30394315	
          0.55000000	          2.05026789	         -4.87105247	         -8.64369832	        -24.02788789	         -6.08350694	        -11.60998264	         -6.71320534	         17.91319389	          4.89887134	        -23.91549245	         12.59400262	         40.34068363	          0.13598088	         34.30527771	
          0.56000000	          1.96398798	         -4.86918065	         -9.01014968	        -24.02828033	         -6.08367586	        -11.61006194	         -6.71356961	         17.91408244	          4.89873730	        -23.27501862	         12.71958010	         39.56359473	          0.11857591	         34.30727809	
          0.57000000	          1.88235384	         -4.86797837	         -9.34862584	        -24.02889556	         -6.08430683	        -11.60992990	         -6.71448625	         17.91575560	          4.89862064	        -22.57834237	         12.83984769	         38.69629325	          0.09518351	         34.30973558	
          0.58000000	          1.80669755	         -4.86832180	         -9.65630442	        -24.02926983	         -6.08503606	        -11.60964998	         -6.71535401	         17.91696999	          4.89865219	        -21.82870214	         12.95549510	         37.77019632	          0.06929644	         34.31241840	
          0.59000000	          1.73771399	         -4.87063509	         -9.93159894	        -24.02913333	         -6.08768911	        -11.60819139	         -6.71760355	         17.91796915	          4.89953819	        -21.03697871	         13.06665386	         36.82496069	          0.04204207	         34.31504686	
          0.60000000	          1.67619404	         -4.87434628	        -10.17372157	        -24.03139549	         -6.08741191	        -11.61184896	         -6.71764400	         17.91843470	          4.89933642	        -20.20152625	         13.16948490	         35.89915777	          0.02139297	         34.31728656	
          0.61000000	          1.62203227	         -4.87965219	        -10.38285306	        -24.03156695	         -6.08850707	        -11.61217824	         -6.71838088	         17.91798069	          4.89990023	        -19.33833329	         13.26732936	         35.02721187	          0.00455880	         34.31888728	
          0.62000000	          1.57549191	         -4.88596559	        -10.55976250	        -24.03550077	         -6.08968432	        -11.61860395	         -6.71954336	         17.91807381	          4.90040003	        -18.44170606	         13.35716238	         34.22613429	         -0.00422873	         34.31997273	
          0.63000000	          1.53662791	         -4.89286178	        -10.70541605	        -24.03804152	         -6.09412152	        -11.62267194	         -6.72280747	         17.91692904	          4.90254446	        -17.52141928	         13.44591073	         33.50204117	         -0.01055889	         34.32075091	
          0.64000000	          1.50581193	         -4.89968110	        -10.82120723	        -24.03975260	         -6.10006007	        -11.62531871	         -6.72703329	         17.91523728	          4.90544502	        -16.57484882	         13.53561383	         32.84184527	         -0.01628017	         34.32155115	
